<mxfile host="app.diagrams.net" agent="Mozilla/5.0 (Windows NT 10.0; Win64; x64) AppleWebKit/537.36 (KHTML, like Gecko) Chrome/131.0.0.0 Safari/537.36" version="24.8.6">
  <diagram name="Page-1" id="0">
    <mxGraphModel dx="1434" dy="772" grid="1" gridSize="10" guides="1" tooltips="1" connect="1" arrows="1" fold="1" page="1" pageScale="1" pageWidth="850" pageHeight="1100" math="0" shadow="0">
      <root>
        <mxCell id="0" />
        <mxCell id="1" parent="0" />
        <mxCell id="UsuarioEntity" value="Usuario&lt;br&gt;&lt;br&gt;idUsuario&lt;br&gt;nome&lt;br&gt;email&lt;br&gt;senha" style="rounded=0;whiteSpace=wrap;html=1;strokeColor=black;fillColor=none;" parent="1" vertex="1">
          <mxGeometry x="50" y="60" width="150" height="100" as="geometry" />
        </mxCell>
        <mxCell id="EnderecoEntity" value="Endereco&lt;br&gt;&lt;br&gt;idEndereco&lt;br&gt;logradouro&lt;br&gt;numero&lt;br&gt;complemento&lt;br&gt;bairro&lt;br&gt;cidade&lt;br&gt;estado&lt;br&gt;cep" style="rounded=0;whiteSpace=wrap;html=1;strokeColor=black;fillColor=none;" parent="1" vertex="1">
          <mxGeometry x="50" y="280" width="150" height="150" as="geometry" />
        </mxCell>
        <mxCell id="edge1" value="" style="edgeStyle=orthogonalEdgeStyle;strokeColor=black;" parent="1" source="UsuarioEntity" target="EnderecoEntity" edge="1">
          <mxGeometry relative="1" as="geometry" />
        </mxCell>
        <mxCell id="ResidenciaEntity" value="Residencia&lt;br&gt;&lt;br&gt;idResidencia&lt;br&gt;tipoResidencia&lt;br&gt;quantidadePessoas" style="rounded=0;whiteSpace=wrap;html=1;strokeColor=black;fillColor=none;" parent="1" vertex="1">
          <mxGeometry x="350" y="170" width="150" height="100" as="geometry" />
        </mxCell>
        <mxCell id="edge2" value="" style="edgeStyle=orthogonalEdgeStyle;strokeColor=black;" parent="1" source="UsuarioEntity" target="ResidenciaEntity" edge="1">
          <mxGeometry relative="1" as="geometry" />
        </mxCell>
        <mxCell id="ComodoEntity" value="Comodo&lt;br&gt;&lt;br&gt;idComodo&lt;br&gt;nomeComodo&lt;br&gt;descricao" style="rounded=0;whiteSpace=wrap;html=1;strokeColor=black;fillColor=none;" parent="1" vertex="1">
          <mxGeometry x="240" y="320" width="150" height="100" as="geometry" />
        </mxCell>
        <mxCell id="edge3" value="" style="edgeStyle=orthogonalEdgeStyle;strokeColor=black;" parent="1" source="UsuarioEntity" target="ComodoEntity" edge="1">
          <mxGeometry relative="1" as="geometry" />
        </mxCell>
        <mxCell id="PontuacaoUsuarioEntity" value="PontuacaoUsuario&lt;br&gt;&lt;br&gt;idPontuacao&lt;br&gt;pontosTotais&lt;br&gt;dataAtualizacao" style="rounded=0;whiteSpace=wrap;html=1;strokeColor=black;fillColor=none;" parent="1" vertex="1">
          <mxGeometry x="540" y="170" width="150" height="100" as="geometry" />
        </mxCell>
        <mxCell id="edge4" value="" style="edgeStyle=orthogonalEdgeStyle;strokeColor=black;" parent="1" source="UsuarioEntity" target="PontuacaoUsuarioEntity" edge="1">
          <mxGeometry relative="1" as="geometry" />
        </mxCell>
        <mxCell id="EletrodomesticoEntity" value="Eletrodomestico&lt;br&gt;&lt;br&gt;idEletrodomestico&lt;br&gt;nomeEletrodomestico&lt;br&gt;potenciaWatts&lt;br&gt;horasUsoDia&lt;br&gt;descricao" style="rounded=0;whiteSpace=wrap;html=1;strokeColor=black;fillColor=none;" parent="1" vertex="1">
          <mxGeometry x="480" y="310" width="150" height="120" as="geometry" />
        </mxCell>
        <mxCell id="edge5" value="" style="edgeStyle=orthogonalEdgeStyle;strokeColor=black;" parent="1" source="ComodoEntity" target="EletrodomesticoEntity" edge="1">
          <mxGeometry relative="1" as="geometry" />
        </mxCell>
        <mxCell id="ConsumoMensalEntity" value="ConsumoMensal&lt;br&gt;&lt;br&gt;idConsumoMensal&lt;br&gt;mesReferencia&lt;br&gt;consumoMensalKwh" style="rounded=0;whiteSpace=wrap;html=1;strokeColor=black;fillColor=none;" parent="1" vertex="1">
          <mxGeometry x="710" y="170" width="150" height="100" as="geometry" />
        </mxCell>
        <mxCell id="edge6" value="" style="edgeStyle=orthogonalEdgeStyle;strokeColor=black;" parent="1" source="UsuarioEntity" target="ConsumoMensalEntity" edge="1">
          <mxGeometry relative="1" as="geometry" />
        </mxCell>
        <mxCell id="JmpnOGfo-wlYKIDdpC95-21" value="" style="line;strokeWidth=2;html=1;" vertex="1" parent="1">
          <mxGeometry x="50" y="80" width="150" height="10" as="geometry" />
        </mxCell>
        <mxCell id="JmpnOGfo-wlYKIDdpC95-22" value="" style="line;strokeWidth=2;html=1;" vertex="1" parent="1">
          <mxGeometry x="50" y="300" width="150" height="10" as="geometry" />
        </mxCell>
        <mxCell id="JmpnOGfo-wlYKIDdpC95-23" value="" style="line;strokeWidth=2;html=1;" vertex="1" parent="1">
          <mxGeometry x="240" y="350" width="150" height="10" as="geometry" />
        </mxCell>
        <mxCell id="JmpnOGfo-wlYKIDdpC95-24" value="" style="line;strokeWidth=2;html=1;" vertex="1" parent="1">
          <mxGeometry x="480" y="340" width="150" height="10" as="geometry" />
        </mxCell>
        <mxCell id="JmpnOGfo-wlYKIDdpC95-25" value="" style="line;strokeWidth=2;html=1;" vertex="1" parent="1">
          <mxGeometry x="350" y="200" width="150" height="10" as="geometry" />
        </mxCell>
        <mxCell id="JmpnOGfo-wlYKIDdpC95-26" value="" style="line;strokeWidth=2;html=1;" vertex="1" parent="1">
          <mxGeometry x="540" y="200" width="150" height="10" as="geometry" />
        </mxCell>
        <mxCell id="JmpnOGfo-wlYKIDdpC95-27" value="" style="line;strokeWidth=2;html=1;" vertex="1" parent="1">
          <mxGeometry x="710" y="200" width="150" height="10" as="geometry" />
        </mxCell>
      </root>
    </mxGraphModel>
  </diagram>
</mxfile>
